<mxfile host="65bd71144e" pages="5">
    <diagram id="PMsA7TqoCFQgQ1k8eyfA" name="LANDING/WELCOME PG">
        <mxGraphModel dx="244" dy="519" grid="1" gridSize="10" guides="1" tooltips="1" connect="1" arrows="1" fold="1" page="1" pageScale="1" pageWidth="850" pageHeight="1100" math="0" shadow="0">
            <root>
                <mxCell id="0"/>
                <mxCell id="1" parent="0"/>
                <mxCell id="PFoel_EwjyQaDbPDVfQ5-1" value="TITLE" style="rounded=1;whiteSpace=wrap;html=1;" parent="1" vertex="1">
                    <mxGeometry x="280" y="30" width="250" height="60" as="geometry"/>
                </mxCell>
                <mxCell id="PFoel_EwjyQaDbPDVfQ5-2" value="DESCRIPTION OF APP" style="whiteSpace=wrap;html=1;aspect=fixed;" parent="1" vertex="1">
                    <mxGeometry x="50" y="130" width="210" height="210" as="geometry"/>
                </mxCell>
                <mxCell id="PFoel_EwjyQaDbPDVfQ5-3" value="PROJECT EXAMPLES" style="whiteSpace=wrap;html=1;aspect=fixed;" parent="1" vertex="1">
                    <mxGeometry x="600" y="140" width="190" height="190" as="geometry"/>
                </mxCell>
                <mxCell id="TnKCLyxgvV-MJMx_SBn_-1" value="Existing Projects" style="strokeWidth=1;shadow=0;dashed=0;align=center;html=1;shape=mxgraph.mockup.buttons.button;strokeColor=#666666;fontColor=#ffffff;mainText=;buttonStyle=round;fontSize=17;fontStyle=1;fillColor=#008cff;whiteSpace=wrap;" parent="1" vertex="1">
                    <mxGeometry x="610" y="595" width="150" height="50" as="geometry"/>
                </mxCell>
                <mxCell id="TnKCLyxgvV-MJMx_SBn_-2" value="Create new Project" style="strokeWidth=1;shadow=0;dashed=0;align=center;html=1;shape=mxgraph.mockup.buttons.button;strokeColor=#666666;fontColor=#ffffff;mainText=;buttonStyle=round;fontSize=17;fontStyle=1;fillColor=#008cff;whiteSpace=wrap;" parent="1" vertex="1">
                    <mxGeometry x="100" y="595" width="150" height="50" as="geometry"/>
                </mxCell>
            </root>
        </mxGraphModel>
    </diagram>
    <diagram id="WJpgckN1hwqWxf1goeM9" name="NEW PAGE">
        <mxGraphModel dx="244" dy="519" grid="1" gridSize="10" guides="1" tooltips="1" connect="1" arrows="1" fold="1" page="1" pageScale="1" pageWidth="850" pageHeight="1100" math="0" shadow="0">
            <root>
                <mxCell id="rmmrh9NK9jjxioQfqaN7-0"/>
                <mxCell id="rmmrh9NK9jjxioQfqaN7-1" parent="rmmrh9NK9jjxioQfqaN7-0"/>
                <mxCell id="rmmrh9NK9jjxioQfqaN7-2" value="NEW PROJECT" style="rounded=0;whiteSpace=wrap;html=1;" parent="rmmrh9NK9jjxioQfqaN7-1" vertex="1">
                    <mxGeometry x="360" y="60" width="120" height="60" as="geometry"/>
                </mxCell>
                <mxCell id="oct4bLHW7cw9ld1-Ybmh-0" value="PROJECT NAME:&lt;br&gt;PROJECT DESCRIPTION:&lt;br&gt;TOOLS NEEDED:" style="text;html=1;strokeColor=none;fillColor=none;align=center;verticalAlign=middle;whiteSpace=wrap;rounded=0;" parent="rmmrh9NK9jjxioQfqaN7-1" vertex="1">
                    <mxGeometry x="20" y="170" width="210" height="70" as="geometry"/>
                </mxCell>
                <mxCell id="oct4bLHW7cw9ld1-Ybmh-1" value="&amp;nbsp;LIST OF&lt;br&gt;PRE-SET TOOLS" style="text;html=1;strokeColor=none;fillColor=none;align=center;verticalAlign=middle;whiteSpace=wrap;rounded=0;" parent="rmmrh9NK9jjxioQfqaN7-1" vertex="1">
                    <mxGeometry x="590" y="160" width="190" height="90" as="geometry"/>
                </mxCell>
                <mxCell id="oct4bLHW7cw9ld1-Ybmh-3" value="Default radio" style="html=1;shadow=0;dashed=0;shape=mxgraph.bootstrap.radioButton2;labelPosition=right;verticalLabelPosition=middle;align=left;verticalAlign=middle;gradientColor=#DEDEDE;fillColor=#EDEDED;checked=1;spacing=5;checkedFill=#0085FC;checkedStroke=#ffffff;sketch=0;" parent="rmmrh9NK9jjxioQfqaN7-1" vertex="1">
                    <mxGeometry x="670" y="230" width="10" height="10" as="geometry"/>
                </mxCell>
                <mxCell id="oct4bLHW7cw9ld1-Ybmh-7" value="ADD PROJECT" style="strokeWidth=1;shadow=0;dashed=0;align=center;html=1;shape=mxgraph.mockup.buttons.button;strokeColor=#666666;fontColor=#ffffff;mainText=;buttonStyle=round;fontSize=17;fontStyle=1;fillColor=#008cff;whiteSpace=wrap;" parent="rmmrh9NK9jjxioQfqaN7-1" vertex="1">
                    <mxGeometry x="360" y="590" width="150" height="50" as="geometry"/>
                </mxCell>
            </root>
        </mxGraphModel>
    </diagram>
    <diagram id="vgJvN3HpjFsdeskscHjY" name="INDEX PAGE">
        <mxGraphModel dx="244" dy="519" grid="1" gridSize="10" guides="1" tooltips="1" connect="1" arrows="1" fold="1" page="1" pageScale="1" pageWidth="850" pageHeight="1100" math="0" shadow="0">
            <root>
                <mxCell id="Rf___P9ga7Rpqtm6tPjR-0"/>
                <mxCell id="Rf___P9ga7Rpqtm6tPjR-1" parent="Rf___P9ga7Rpqtm6tPjR-0"/>
                <mxCell id="Rf___P9ga7Rpqtm6tPjR-2" value="CURRENT PROJECTS" style="rounded=1;whiteSpace=wrap;html=1;" parent="Rf___P9ga7Rpqtm6tPjR-1" vertex="1">
                    <mxGeometry x="380" y="20" width="120" height="60" as="geometry"/>
                </mxCell>
                <mxCell id="Rf___P9ga7Rpqtm6tPjR-3" value="PROJECT_1" style="swimlane;" parent="Rf___P9ga7Rpqtm6tPjR-1" vertex="1">
                    <mxGeometry x="30" y="120" width="200" height="200" as="geometry"/>
                </mxCell>
                <mxCell id="Rf___P9ga7Rpqtm6tPjR-8" value="&lt;h1&gt;&lt;span style=&quot;font-size: 12px ; font-weight: normal&quot;&gt;Lorem ipsum dolor sit amet, consectetur adipisicing elit, sed do eiusmod tempor incididunt ut labore et dolore magna aliqua.&lt;/span&gt;&lt;br&gt;&lt;/h1&gt;" style="text;html=1;strokeColor=none;fillColor=none;spacing=5;spacingTop=-20;whiteSpace=wrap;overflow=hidden;rounded=0;" parent="Rf___P9ga7Rpqtm6tPjR-3" vertex="1">
                    <mxGeometry y="30" width="200" height="130" as="geometry"/>
                </mxCell>
                <mxCell id="Rf___P9ga7Rpqtm6tPjR-9" value="PROGRESS" style="text;html=1;strokeColor=none;fillColor=none;align=center;verticalAlign=middle;whiteSpace=wrap;rounded=0;" parent="Rf___P9ga7Rpqtm6tPjR-3" vertex="1">
                    <mxGeometry y="160" width="170" height="30" as="geometry"/>
                </mxCell>
                <mxCell id="Rf___P9ga7Rpqtm6tPjR-4" value="PROJECT_2" style="swimlane;" parent="Rf___P9ga7Rpqtm6tPjR-1" vertex="1">
                    <mxGeometry x="320" y="120" width="200" height="200" as="geometry"/>
                </mxCell>
                <mxCell id="Rf___P9ga7Rpqtm6tPjR-10" value="PROGRESS" style="text;html=1;strokeColor=none;fillColor=none;align=center;verticalAlign=middle;whiteSpace=wrap;rounded=0;" parent="Rf___P9ga7Rpqtm6tPjR-4" vertex="1">
                    <mxGeometry x="15" y="160" width="170" height="30" as="geometry"/>
                </mxCell>
                <mxCell id="Rf___P9ga7Rpqtm6tPjR-13" value="&lt;h1&gt;&lt;span style=&quot;font-size: 12px ; font-weight: normal&quot;&gt;Lorem ipsum dolor sit amet, consectetur adipisicing elit, sed do eiusmod tempor incididunt ut labore et dolore magna aliqua.&lt;/span&gt;&lt;br&gt;&lt;/h1&gt;" style="text;html=1;strokeColor=none;fillColor=none;spacing=5;spacingTop=-20;whiteSpace=wrap;overflow=hidden;rounded=0;" parent="Rf___P9ga7Rpqtm6tPjR-4" vertex="1">
                    <mxGeometry y="30" width="200" height="130" as="geometry"/>
                </mxCell>
                <mxCell id="Rf___P9ga7Rpqtm6tPjR-5" value="PROJECT_3" style="swimlane;" parent="Rf___P9ga7Rpqtm6tPjR-1" vertex="1">
                    <mxGeometry x="600" y="120" width="200" height="200" as="geometry"/>
                </mxCell>
                <mxCell id="Rf___P9ga7Rpqtm6tPjR-11" value="PROGRESS" style="text;html=1;strokeColor=none;fillColor=none;align=center;verticalAlign=middle;whiteSpace=wrap;rounded=0;" parent="Rf___P9ga7Rpqtm6tPjR-5" vertex="1">
                    <mxGeometry x="10" y="160" width="170" height="30" as="geometry"/>
                </mxCell>
                <mxCell id="Rf___P9ga7Rpqtm6tPjR-14" value="&lt;h1&gt;&lt;span style=&quot;font-size: 12px ; font-weight: normal&quot;&gt;Lorem ipsum dolor sit amet, consectetur adipisicing elit, sed do eiusmod tempor incididunt ut labore et dolore magna aliqua.&lt;/span&gt;&lt;br&gt;&lt;/h1&gt;" style="text;html=1;strokeColor=none;fillColor=none;spacing=5;spacingTop=-20;whiteSpace=wrap;overflow=hidden;rounded=0;" parent="Rf___P9ga7Rpqtm6tPjR-5" vertex="1">
                    <mxGeometry x="-5" y="30" width="200" height="130" as="geometry"/>
                </mxCell>
                <mxCell id="Rf___P9ga7Rpqtm6tPjR-6" value="PROJECT_4" style="swimlane;" parent="Rf___P9ga7Rpqtm6tPjR-1" vertex="1">
                    <mxGeometry x="30" y="360" width="200" height="200" as="geometry"/>
                </mxCell>
                <mxCell id="Rf___P9ga7Rpqtm6tPjR-12" value="PROGRESS" style="text;html=1;strokeColor=none;fillColor=none;align=center;verticalAlign=middle;whiteSpace=wrap;rounded=0;" parent="Rf___P9ga7Rpqtm6tPjR-6" vertex="1">
                    <mxGeometry x="10" y="160" width="170" height="30" as="geometry"/>
                </mxCell>
                <mxCell id="Rf___P9ga7Rpqtm6tPjR-15" value="&lt;h1&gt;&lt;span style=&quot;font-size: 12px ; font-weight: normal&quot;&gt;Lorem ipsum dolor sit amet, consectetur adipisicing elit, sed do eiusmod tempor incididunt ut labore et dolore magna aliqua.&lt;/span&gt;&lt;br&gt;&lt;/h1&gt;" style="text;html=1;strokeColor=none;fillColor=none;spacing=5;spacingTop=-20;whiteSpace=wrap;overflow=hidden;rounded=0;" parent="Rf___P9ga7Rpqtm6tPjR-6" vertex="1">
                    <mxGeometry y="20" width="200" height="130" as="geometry"/>
                </mxCell>
            </root>
        </mxGraphModel>
    </diagram>
    <diagram id="tu_vgmvqEOU8fAitFhL5" name="SHOW PAGE">
        <mxGraphModel dx="244" dy="519" grid="1" gridSize="10" guides="1" tooltips="1" connect="1" arrows="1" fold="1" page="1" pageScale="1" pageWidth="850" pageHeight="1100" math="0" shadow="0">
            <root>
                <mxCell id="WUOztbAHU12fIQKmSk9C-0"/>
                <mxCell id="WUOztbAHU12fIQKmSk9C-1" parent="WUOztbAHU12fIQKmSk9C-0"/>
                <mxCell id="WUOztbAHU12fIQKmSk9C-2" value="PROJECT TITLE" style="rounded=1;whiteSpace=wrap;html=1;" parent="WUOztbAHU12fIQKmSk9C-1" vertex="1">
                    <mxGeometry x="360" y="50" width="200" height="60" as="geometry"/>
                </mxCell>
                <mxCell id="WUOztbAHU12fIQKmSk9C-4" value="" style="swimlane;startSize=0;" parent="WUOztbAHU12fIQKmSk9C-1" vertex="1">
                    <mxGeometry x="120" y="180" width="620" height="270" as="geometry"/>
                </mxCell>
                <mxCell id="WUOztbAHU12fIQKmSk9C-5" value="DESCRIPTION" style="text;html=1;align=center;verticalAlign=middle;resizable=0;points=[];autosize=1;strokeColor=none;fillColor=none;" parent="WUOztbAHU12fIQKmSk9C-4" vertex="1">
                    <mxGeometry y="20" width="100" height="20" as="geometry"/>
                </mxCell>
                <mxCell id="WUOztbAHU12fIQKmSk9C-7" value="LIST OF TOOLS" style="text;html=1;strokeColor=none;fillColor=none;align=center;verticalAlign=middle;whiteSpace=wrap;rounded=0;" parent="WUOztbAHU12fIQKmSk9C-4" vertex="1">
                    <mxGeometry x="520" y="10" width="60" height="30" as="geometry"/>
                </mxCell>
                <mxCell id="WUOztbAHU12fIQKmSk9C-6" value="PROGRESS" style="text;html=1;strokeColor=none;fillColor=none;align=center;verticalAlign=middle;whiteSpace=wrap;rounded=0;" parent="WUOztbAHU12fIQKmSk9C-4" vertex="1">
                    <mxGeometry x="230" y="210" width="200" height="30" as="geometry"/>
                </mxCell>
                <mxCell id="y8S2QzlIRwceNMBF0ckJ-0" value="EDIT PROJECT" style="strokeWidth=1;shadow=0;dashed=0;align=center;html=1;shape=mxgraph.mockup.buttons.button;strokeColor=#666666;fontColor=#ffffff;mainText=;buttonStyle=round;fontSize=17;fontStyle=1;fillColor=#008cff;whiteSpace=wrap;" parent="WUOztbAHU12fIQKmSk9C-1" vertex="1">
                    <mxGeometry x="150" y="590" width="150" height="50" as="geometry"/>
                </mxCell>
                <mxCell id="y8S2QzlIRwceNMBF0ckJ-1" value="DELETE PROJECT" style="strokeWidth=1;shadow=0;dashed=0;align=center;html=1;shape=mxgraph.mockup.buttons.button;strokeColor=#b85450;mainText=;buttonStyle=round;fontSize=17;fontStyle=1;fillColor=#f8cecc;whiteSpace=wrap;" parent="WUOztbAHU12fIQKmSk9C-1" vertex="1">
                    <mxGeometry x="610" y="590" width="150" height="50" as="geometry"/>
                </mxCell>
            </root>
        </mxGraphModel>
    </diagram>
    <diagram id="7BF-d6Dl2PTo0vyM3Vmd" name="EDIT PAGE">
        <mxGraphModel dx="244" dy="519" grid="1" gridSize="10" guides="1" tooltips="1" connect="1" arrows="1" fold="1" page="1" pageScale="1" pageWidth="850" pageHeight="1100" math="0" shadow="0">
            <root>
                <mxCell id="8JgIJtmQY64FAI34JLKf-0"/>
                <mxCell id="8JgIJtmQY64FAI34JLKf-1" parent="8JgIJtmQY64FAI34JLKf-0"/>
                <mxCell id="8JgIJtmQY64FAI34JLKf-2" value="UPDATE PROJECT" style="rounded=1;whiteSpace=wrap;html=1;" parent="8JgIJtmQY64FAI34JLKf-1" vertex="1">
                    <mxGeometry x="365" y="20" width="120" height="60" as="geometry"/>
                </mxCell>
                <mxCell id="pHVjoMCmm1dQPtoC5RV5-0" value="PROJECT NAME:&lt;br&gt;PROJECT DESCRIPTION:&lt;br&gt;TOOLS NEEDED:" style="text;html=1;strokeColor=none;fillColor=none;align=center;verticalAlign=middle;whiteSpace=wrap;rounded=0;" parent="8JgIJtmQY64FAI34JLKf-1" vertex="1">
                    <mxGeometry x="60" y="140" width="210" height="70" as="geometry"/>
                </mxCell>
                <mxCell id="WbQ4y3PxCNezdWFiA3TU-0" value="&amp;nbsp;LIST OF&lt;br&gt;PRE-SET TOOLS" style="text;html=1;strokeColor=none;fillColor=none;align=center;verticalAlign=middle;whiteSpace=wrap;rounded=0;" parent="8JgIJtmQY64FAI34JLKf-1" vertex="1">
                    <mxGeometry x="640" y="140" width="190" height="90" as="geometry"/>
                </mxCell>
                <mxCell id="2NLHvgkFENlmle5uA-5d-0" value="Default radio" style="html=1;shadow=0;dashed=0;shape=mxgraph.bootstrap.radioButton2;labelPosition=right;verticalLabelPosition=middle;align=left;verticalAlign=middle;gradientColor=#DEDEDE;fillColor=#EDEDED;checked=1;spacing=5;checkedFill=#0085FC;checkedStroke=#ffffff;sketch=0;" parent="8JgIJtmQY64FAI34JLKf-1" vertex="1">
                    <mxGeometry x="700" y="240" width="10" height="10" as="geometry"/>
                </mxCell>
                <mxCell id="2NLHvgkFENlmle5uA-5d-1" value="Default radio" style="html=1;shadow=0;dashed=0;shape=mxgraph.bootstrap.radioButton2;labelPosition=right;verticalLabelPosition=middle;align=left;verticalAlign=middle;gradientColor=#DEDEDE;fillColor=#EDEDED;checked=1;spacing=5;checkedFill=#0085FC;checkedStroke=#ffffff;sketch=0;" parent="8JgIJtmQY64FAI34JLKf-1" vertex="1">
                    <mxGeometry x="700" y="270" width="10" height="10" as="geometry"/>
                </mxCell>
                <mxCell id="2NLHvgkFENlmle5uA-5d-2" value="Default radio" style="html=1;shadow=0;dashed=0;shape=mxgraph.bootstrap.radioButton2;labelPosition=right;verticalLabelPosition=middle;align=left;verticalAlign=middle;gradientColor=#DEDEDE;fillColor=#EDEDED;checked=1;spacing=5;checkedFill=#0085FC;checkedStroke=#ffffff;sketch=0;" parent="8JgIJtmQY64FAI34JLKf-1" vertex="1">
                    <mxGeometry x="700" y="300" width="10" height="10" as="geometry"/>
                </mxCell>
                <mxCell id="2NLHvgkFENlmle5uA-5d-4" value="UPDATE PROJECT" style="strokeWidth=1;shadow=0;dashed=0;align=center;html=1;shape=mxgraph.mockup.buttons.button;strokeColor=#666666;fontColor=#ffffff;mainText=;buttonStyle=round;fontSize=17;fontStyle=1;fillColor=#008cff;whiteSpace=wrap;" parent="8JgIJtmQY64FAI34JLKf-1" vertex="1">
                    <mxGeometry x="365" y="470" width="150" height="50" as="geometry"/>
                </mxCell>
            </root>
        </mxGraphModel>
    </diagram>
</mxfile>